<mxfile host="65bd71144e">
    <diagram id="xtpkMDf_4JIZB9m0gUoo" name="Page-1">
        <mxGraphModel dx="1704" dy="1139" grid="1" gridSize="10" guides="1" tooltips="1" connect="1" arrows="1" fold="1" page="1" pageScale="1" pageWidth="850" pageHeight="1100" math="0" shadow="0">
            <root>
                <mxCell id="0"/>
                <mxCell id="1" parent="0"/>
                <mxCell id="3" value="Dockerfile" style="swimlane;startSize=20;horizontal=1;containerType=tree;" vertex="1" parent="1">
                    <mxGeometry x="320" y="40" width="200" height="120" as="geometry"/>
                </mxCell>
                <mxCell id="2" value="Expose &lt;font color=&quot;#698cff&quot;&gt;8080&lt;/font&gt;" style="rounded=0;whiteSpace=wrap;html=1;strokeColor=#698CFF;" vertex="1" parent="3">
                    <mxGeometry x="40" y="40" width="120" height="60" as="geometry"/>
                </mxCell>
                <mxCell id="7" value="docker run" style="swimlane;startSize=20;horizontal=1;containerType=tree;" vertex="1" parent="1">
                    <mxGeometry x="560" y="40" width="360" height="120" as="geometry"/>
                </mxCell>
                <mxCell id="8" value="&lt;font color=&quot;#f05b5b&quot;&gt;8081&lt;/font&gt;" style="rounded=0;whiteSpace=wrap;html=1;strokeColor=#F05B5B;" vertex="1" parent="7">
                    <mxGeometry x="40" y="40" width="120" height="60" as="geometry"/>
                </mxCell>
                <mxCell id="9" value="&lt;font color=&quot;#698cff&quot;&gt;8080&lt;/font&gt;" style="rounded=0;whiteSpace=wrap;html=1;strokeColor=#698CFF;" vertex="1" parent="7">
                    <mxGeometry x="200" y="40" width="120" height="60" as="geometry"/>
                </mxCell>
                <mxCell id="23" value="&lt;font style=&quot;font-size: 20px;&quot; color=&quot;#f0f0f0&quot;&gt;:&lt;/font&gt;" style="text;html=1;strokeColor=none;fillColor=none;align=center;verticalAlign=middle;whiteSpace=wrap;rounded=0;fontColor=#F05B5B;" vertex="1" parent="7">
                    <mxGeometry x="147.5" y="55" width="60" height="30" as="geometry"/>
                </mxCell>
                <mxCell id="10" value="Reverse Proxy" style="swimlane;startSize=20;horizontal=1;containerType=tree;" vertex="1" parent="1">
                    <mxGeometry x="960" y="40" width="320" height="160" as="geometry"/>
                </mxCell>
                <mxCell id="11" value="&lt;div&gt;pnp.&amp;lt;url&amp;gt; {&lt;/div&gt;&lt;div&gt;&amp;nbsp; reverse_proxy PenAndPaperServer:&lt;font color=&quot;#698cff&quot;&gt;8080&lt;/font&gt;&lt;/div&gt;&lt;div style=&quot;&quot;&gt;&lt;span style=&quot;background-color: initial;&quot;&gt;}&lt;/span&gt;&lt;/div&gt;" style="rounded=0;whiteSpace=wrap;html=1;align=left;strokeColor=#698CFF;" vertex="1" parent="10">
                    <mxGeometry x="40" y="40" width="240" height="80" as="geometry"/>
                </mxCell>
                <mxCell id="12" value="Appsettings.json" style="swimlane;startSize=20;horizontal=1;containerType=tree;" vertex="1" parent="1">
                    <mxGeometry x="40" y="40" width="240" height="200" as="geometry"/>
                </mxCell>
                <mxCell id="13" value="&quot;Kestrel&quot;: {&lt;br&gt;&amp;nbsp; &quot;Endpoints&quot;: {&lt;br&gt;&amp;nbsp; &amp;nbsp; &quot;Http&quot;: {&lt;br&gt;&amp;nbsp; &amp;nbsp; &amp;nbsp; &quot;Url&quot;: &quot;http://0.0.0.0:&lt;font color=&quot;#698cff&quot;&gt;8080&lt;/font&gt;&quot;&lt;br&gt;&amp;nbsp; &amp;nbsp; }&lt;br&gt;&amp;nbsp; }&lt;br&gt;    }" style="rounded=0;whiteSpace=wrap;html=1;align=left;strokeColor=#698CFF;" vertex="1" parent="12">
                    <mxGeometry x="40" y="40" width="160" height="120" as="geometry"/>
                </mxCell>
                <mxCell id="15" value="" style="edgeStyle=none;endArrow=none;dashed=1;html=1;entryX=0.5;entryY=1;entryDx=0;entryDy=0;exitX=0.5;exitY=0;exitDx=0;exitDy=0;exitPerimeter=0;" edge="1" source="20" parent="1" target="7">
                    <mxGeometry x="1" relative="1" as="geometry">
                        <mxPoint x="790" y="290" as="targetPoint"/>
                        <mxPoint x="665" y="200" as="sourcePoint"/>
                    </mxGeometry>
                </mxCell>
                <mxCell id="20" value="&lt;i&gt;Maps ports from the &lt;strong&gt;host machine&lt;/strong&gt; (left) to the &lt;strong&gt;container&lt;/strong&gt; (right).&lt;/i&gt;" style="shape=note;size=15;align=left;spacingLeft=10;html=1;whiteSpace=wrap;strokeColor=#FF9933;" vertex="1" parent="1">
                    <mxGeometry x="560" y="280" width="360" height="120" as="geometry"/>
                </mxCell>
                <mxCell id="21" value="&lt;i&gt;Configures Caddy to forward incoming traffic for &lt;br&gt;pnp.&amp;lt;url&amp;gt;&amp;nbsp;to the application running inside the Docker container.&lt;/i&gt;" style="shape=note;size=15;align=left;spacingLeft=10;html=1;whiteSpace=wrap;strokeColor=#FF9933;" vertex="1" parent="1">
                    <mxGeometry x="960" y="280" width="320" height="120" as="geometry"/>
                </mxCell>
                <mxCell id="24" value="&lt;i&gt;Configures the ASP.NET application to listen on a specific network interface and port.&lt;/i&gt;" style="shape=note;size=15;align=left;spacingLeft=10;html=1;whiteSpace=wrap;strokeColor=#FF9933;" vertex="1" parent="1">
                    <mxGeometry x="40" y="280" width="240" height="120" as="geometry"/>
                </mxCell>
                <mxCell id="25" value="&lt;i&gt;Signals to Docker and other users of the image that the application inside the container is available on port 8080.&lt;/i&gt;" style="shape=note;size=15;align=left;spacingLeft=10;html=1;whiteSpace=wrap;strokeColor=#FF9933;" vertex="1" parent="1">
                    <mxGeometry x="320" y="280" width="200" height="120" as="geometry"/>
                </mxCell>
                <mxCell id="27" value="&lt;font color=&quot;#f05b5b&quot;&gt;&lt;span style=&quot;font-size: 12px; text-align: left;&quot;&gt;• Needs to be unique in docker&lt;/span&gt;&lt;br style=&quot;font-size: 12px; text-align: left;&quot;&gt;&lt;span style=&quot;font-size: 12px; text-align: left;&quot;&gt;• Does not need to match anything&lt;/span&gt;&lt;/font&gt;" style="rounded=1;whiteSpace=wrap;html=1;strokeColor=#F05B5B;fontSize=20;fontColor=#F0F0F0;" vertex="1" parent="1">
                    <mxGeometry x="1320" y="140" width="200" height="60" as="geometry"/>
                </mxCell>
                <mxCell id="28" value="&lt;div style=&quot;&quot;&gt;&lt;span style=&quot;background-color: initial; font-size: 12px;&quot;&gt;&lt;font color=&quot;#698cff&quot;&gt;• Needs to be the same&lt;br&gt;everywhere&lt;/font&gt;&lt;/span&gt;&lt;/div&gt;" style="rounded=1;whiteSpace=wrap;html=1;strokeColor=#698CFF;fontSize=20;fontColor=#F0F0F0;align=center;" vertex="1" parent="1">
                    <mxGeometry x="1320" y="40" width="200" height="60" as="geometry"/>
                </mxCell>
                <mxCell id="29" value="" style="edgeStyle=none;endArrow=none;dashed=1;html=1;entryX=0.5;entryY=1;entryDx=0;entryDy=0;exitX=0.5;exitY=0;exitDx=0;exitDy=0;exitPerimeter=0;" edge="1" parent="1" source="25" target="3">
                    <mxGeometry x="1" relative="1" as="geometry">
                        <mxPoint x="750" y="170" as="targetPoint"/>
                        <mxPoint x="750" y="290" as="sourcePoint"/>
                    </mxGeometry>
                </mxCell>
                <mxCell id="30" value="" style="edgeStyle=none;endArrow=none;dashed=1;html=1;entryX=0.5;entryY=1;entryDx=0;entryDy=0;" edge="1" parent="1" source="24" target="12">
                    <mxGeometry x="1" relative="1" as="geometry">
                        <mxPoint x="760" y="180" as="targetPoint"/>
                        <mxPoint x="760" y="300" as="sourcePoint"/>
                    </mxGeometry>
                </mxCell>
                <mxCell id="31" value="" style="edgeStyle=none;endArrow=none;dashed=1;html=1;entryX=0.5;entryY=1;entryDx=0;entryDy=0;exitX=0.5;exitY=0;exitDx=0;exitDy=0;exitPerimeter=0;" edge="1" parent="1" source="21" target="10">
                    <mxGeometry x="1" relative="1" as="geometry">
                        <mxPoint x="770" y="190" as="targetPoint"/>
                        <mxPoint x="770" y="310" as="sourcePoint"/>
                    </mxGeometry>
                </mxCell>
            </root>
        </mxGraphModel>
    </diagram>
</mxfile>